<?xml version="1.0" encoding="utf-8"?>
<!-- Generator: Adobe Illustrator 25.0.0, SVG Export Plug-In . SVG Version: 6.00 Build 0)  -->
<svg version="1.1" id="Camada_1" xmlns="http://www.w3.org/2000/svg" xmlns:xlink="http://www.w3.org/1999/xlink" x="0px" y="0px"
	 viewBox="0 0 32 32" style="enable-background:new 0 0 32 32;" xml:space="preserve">
<style type="text/css">
	.st0{fill-rule:evenodd;clip-rule:evenodd;fill:#111111;}
</style>
<path class="st0" d="M21.88,12.69h-0.03l0,12.06c0,9.4-15.74,9.4-15.74,1.51c-0.01-2.52,2.91-2.49,2.91,0.12
	c-0.02,3.43,1.01,5.21,3.54,5.21c2.77,0,4.95-2.13,4.95-6.55V12.33c0-0.01,0-0.01,0-0.02v-1.6c0,0.01,0,0.02,0,0.03V5.47
	c0-0.13,0-0.26-0.01-0.39v0c-0.12-1.14-1.09-2.03-2.26-2.03h-0.16c0,0,0.82-0.08,1.76-0.27c0.46-0.1,0.94-0.22,1.37-0.38
	c0.45-0.17,0.91-0.37,1.36-0.61c0.84-0.45,1.65-1.03,2.3-1.79"/>
<g>
</g>
<g>
</g>
<g>
</g>
<g>
</g>
<g>
</g>
<g>
</g>
<g>
</g>
<g>
</g>
<g>
</g>
<g>
</g>
<g>
</g>
<g>
</g>
<g>
</g>
<g>
</g>
<g>
</g>
</svg>
